#N canvas 446 134 763 531 10;
#X obj 53 171 sel C C# Db D D# Eb E F F# Gb G G# Ab A A# Bb B;
#X floatatom 404 235 5 0 0 0 - - -;
#X symbolatom 53 109 10 0 0 0 - - -;
#X obj 53 82 unpack s f;
#X floatatom 419 99 5 0 0 0 - - -;
#X obj 404 281 +;
#X obj 404 361 outlet;
#X obj 53 55 inlet;
#X msg 419 199 0;
#X msg 432 179 12;
#X msg 446 199 24;
#X msg 474 199 48;
#X msg 488 179 60;
#X msg 502 199 72;
#X msg 516 179 85;
#X msg 530 199 96;
#X obj 419 125 + 1;
#X msg 460 179 36;
#X obj 419 152 sel 0 1 2 3 4 5 6 7 8 9 10;
#X msg 53 218 0;
#X msg 78 198 1;
#X msg 102 218 2;
#X msg 127 198 3;
#X msg 151 218 4;
#X msg 167 218 5;
#X msg 193 198 6;
#X msg 217 218 7;
#X msg 242 198 8;
#X msg 266 218 9;
#X msg 291 198 10;
#X msg 315 218 11;
#X text 143 54 Input must be formatted with capital letter name and
octave;
#X text 70 151 Typical enharmonic spellings are accepted;
#X msg 558 199 120;
#X msg 544 179 108;
#X obj 404 334 sel < 128;
#X floatatom 404 308 5 0 0 0 - - -;
#X obj 332 382 print INPUT ERROR (Invalid Note Name);
#X obj 332 436 print INPUT ERROR (Invalid MIDI Number - Note too high?)
;
#X obj 332 409 print INPUT ERROR (Invalid Octave - Use "-1" through
"9");
#X text 225 409 Error messages:;
#X text 452 125 Correct for "-1" and select octave;
#X msg 113 55 C 3;
#X connect 0 0 19 0;
#X connect 0 1 20 0;
#X connect 0 2 20 0;
#X connect 0 3 21 0;
#X connect 0 4 22 0;
#X connect 0 5 22 0;
#X connect 0 6 23 0;
#X connect 0 7 24 0;
#X connect 0 8 25 0;
#X connect 0 9 25 0;
#X connect 0 10 26 0;
#X connect 0 11 27 0;
#X connect 0 12 27 0;
#X connect 0 13 28 0;
#X connect 0 14 29 0;
#X connect 0 15 29 0;
#X connect 0 16 30 0;
#X connect 0 17 37 0;
#X connect 1 0 5 0;
#X connect 2 0 0 0;
#X connect 3 0 2 0;
#X connect 3 1 4 0;
#X connect 4 0 16 0;
#X connect 5 0 36 0;
#X connect 7 0 3 0;
#X connect 8 0 5 1;
#X connect 9 0 5 1;
#X connect 10 0 5 1;
#X connect 11 0 5 1;
#X connect 12 0 5 1;
#X connect 13 0 5 1;
#X connect 14 0 5 1;
#X connect 15 0 5 1;
#X connect 16 0 18 0;
#X connect 17 0 5 1;
#X connect 18 0 8 0;
#X connect 18 1 9 0;
#X connect 18 2 10 0;
#X connect 18 3 17 0;
#X connect 18 4 11 0;
#X connect 18 5 12 0;
#X connect 18 6 13 0;
#X connect 18 7 14 0;
#X connect 18 8 15 0;
#X connect 18 9 34 0;
#X connect 18 10 33 0;
#X connect 18 11 39 0;
#X connect 19 0 1 0;
#X connect 20 0 1 0;
#X connect 21 0 1 0;
#X connect 22 0 1 0;
#X connect 23 0 1 0;
#X connect 24 0 1 0;
#X connect 25 0 1 0;
#X connect 26 0 1 0;
#X connect 27 0 1 0;
#X connect 28 0 1 0;
#X connect 29 0 1 0;
#X connect 30 0 1 0;
#X connect 33 0 5 1;
#X connect 34 0 5 1;
#X connect 35 0 6 0;
#X connect 35 2 38 0;
#X connect 36 0 35 0;
#X connect 42 0 3 0;
